<svg width="55" height="55" viewBox="0 0 55 55" fill="none" xmlns="http://www.w3.org/2000/svg">
<g clip-path="url(#clip0_21_2)">
<rect width="55" height="55" rx="8.4" fill="url(#paint0_linear_21_2)"/>
<g filter="url(#filter0_d_21_2)">
<path fill-rule="evenodd" clip-rule="evenodd" d="M34.5617 11.7634C33.3502 11.2595 32.0445 10.9997 30.725 11C28.9579 10.9987 27.2242 11.4639 25.7122 12.3451C24.2003 13.2263 22.9678 14.4898 22.1487 15.9984C20.9953 15.3504 19.6616 15.0632 18.3317 15.1764C17.0017 15.2897 15.741 15.7977 14.7235 16.6306C13.706 17.4634 12.9818 18.5799 12.6508 19.8261C12.3198 21.0723 12.3984 22.3867 12.8757 23.5881C10.9347 23.9708 9.1904 24.9874 7.93761 26.4662C6.68482 27.945 6.00038 29.7951 6 31.7039C6.00284 33.9016 6.90948 36.0085 8.52137 37.5635C10.1333 39.1184 12.319 39.9945 14.6 40H40.4L40.3979 39.9855H40.4L40.83 39.9751C43.0326 39.8689 45.1086 38.9515 46.6291 37.4126C48.1496 35.8736 48.9983 33.8307 49 31.706L48.9893 31.2917C48.8784 29.1686 47.9248 27.1678 46.3257 25.703C44.7266 24.2383 42.6043 23.4218 40.3979 23.4224L40.4 20.8807H40.3828C40.4623 19.6117 40.2714 18.3404 39.822 17.1451C39.3726 15.9498 38.674 14.8558 37.7694 13.9302C36.8647 13.0047 35.7731 12.2673 34.5617 11.7634ZM14 31.5V38H15.2727H16.5455V35.4V32.8H19.0909H21.6364V34.1V35.4H22.9091H24.1818V36.7V38H25.4545H26.7273V36.7V35.4H25.4545H24.1818V34.1V32.8H22.9091H21.6364V31.5V30.2H22.9091H24.1818V28.9V27.6H25.4545H26.7273V26.3V25H25.4545H24.1818V26.3V27.6H22.9091H21.6364V28.9V30.2H19.0909H16.5455V27.6V25H15.2727H14V31.5ZM29.2727 38V31.5V25H30.5455H31.8182V27.6V30.2H35.6364H39.4545V27.6V25H40.7273H42V31.5V38H40.7273H39.4545V35.4V32.8H35.6364H31.8182V35.4V38H30.5455H29.2727Z" fill="white"/>
</g>
</g>
<rect x="1.05" y="1.05" width="52.9" height="52.9" rx="7.35" stroke="white" stroke-opacity="0.15" stroke-width="2.1"/>
<defs>
<filter id="filter0_d_21_2" x="0.285715" y="2.28571" width="54.4286" height="50.4286" filterUnits="userSpaceOnUse" color-interpolation-filters="sRGB">
<feFlood flood-opacity="0" result="BackgroundImageFix"/>
<feColorMatrix in="SourceAlpha" type="matrix" values="0 0 0 0 0 0 0 0 0 0 0 0 0 0 0 0 0 0 127 0" result="hardAlpha"/>
<feOffset/>
<feGaussianBlur stdDeviation="2.85714"/>
<feComposite in2="hardAlpha" operator="out"/>
<feColorMatrix type="matrix" values="0 0 0 0 0 0 0 0 0 0 0 0 0 0 0 0 0 0 0.25 0"/>
<feBlend mode="normal" in2="BackgroundImageFix" result="effect1_dropShadow_21_2"/>
<feBlend mode="normal" in="SourceGraphic" in2="effect1_dropShadow_21_2" result="shape"/>
</filter>
<linearGradient id="paint0_linear_21_2" x1="27.5" y1="0" x2="27.5" y2="55" gradientUnits="userSpaceOnUse">
<stop stop-color="#ACB2FF"/>
<stop offset="0.265509" stop-color="#5964E9"/>
<stop offset="1" stop-color="#080A26"/>
</linearGradient>
<clipPath id="clip0_21_2">
<rect width="55" height="55" rx="8.4" fill="white"/>
</clipPath>
</defs>
</svg>
